<?xml version="1.0" encoding="utf-8"?>
<!-- Generator: Adobe Adobe Illustrator 24.2.0, SVG Export Plug-In . SVG Version: 6.00 Build 0)  -->
<svg version="1.1" id="Layer_1" xmlns="http://www.w3.org/2000/svg" xmlns:xlink="http://www.w3.org/1999/xlink" x="0px" y="0px"
	 viewBox="0 0 500 500" style="enable-background:new 0 0 500 500;" xml:space="preserve">
<style type="text/css">
	.st0{fill:#E0F6FF;}
	.st1{fill:#BFECFF;}
	.st2{fill:#917A4C;}
	.st3{fill:#C7AC75;}
	.st4{fill:none;stroke:#857350;stroke-width:2;stroke-miterlimit:10;}
	.st5{fill:#F2D9A7;}
	.st6{fill:#FFE6B3;}
	.st7{fill:url(#SVGID_1_);}
	.st8{fill:#A8905E;}
	.st9{fill:#F0D59E;}
	.st10{fill:#B8B8B8;}
	.st11{fill:#E3C27F;}
	.st12{fill:#CFB684;}
	.st13{fill:#F0BF25;}
	.st14{fill:#2FA9DC;}
	.st15{fill:#F1662B;}
	.st16{clip-path:url(#SVGID_3_);}
	.st17{clip-path:url(#SVGID_5_);fill:#100F0F;}
</style>
<g>
	<g>
		<path class="st0" d="M460.03,155.12c-0.19-86.83-62.31-57.52-74.53-50.92c-1.36-38.15-29.3-75.53-63.11-75.53
			c-16.83,0-32.13,8.25-43.45,21.7c-11.47-29.83-35.83-50.42-64.02-50.42c-31.2,0-57.7,25.21-67.24,60.26
			c-6.64-3.38-13.9-5.24-21.51-5.24c-28.03,0-51.35,25.25-56.26,58.59c-11.74,3.37-32.8,14.38-29.7,49.81
			c-17.69,6.54-30.01,16.26-30.01,29.52c0,27.8,30.8,47.12,75.07,47.12c21.35,0,46.17-2.1,66.15-7.38
			c26.76,6.73,64.46,10.93,106.23,10.93c42.04,0,79.95-4.25,106.74-11.06c9.83,2,20.5,3.1,31.65,3.1
			c49.13,0,88.95-21.27,88.95-47.51C484.98,175.29,475.48,163.66,460.03,155.12z"/>
	</g>
	<g>
		<path class="st1" d="M449.74,157.93c-0.18-75.53-59.42-50.04-71.07-44.29c-1.29-33.19-27.94-65.7-60.18-65.7
			c-16.05,0-30.64,7.18-41.43,18.88C266.11,40.86,242.88,22.95,216,22.95c-29.75,0-55.03,21.93-64.13,52.42
			c-6.33-2.94-13.25-4.56-20.51-4.56c-26.73,0-48.96,21.97-53.66,50.97c-11.2,2.93-31.27,12.51-28.33,43.33
			c-16.87,5.69-28.62,14.14-28.62,25.68c0,24.19,29.38,40.99,71.59,40.99c20.36,0,44.03-1.82,63.08-6.42
			c25.51,5.86,61.47,9.51,101.3,9.51c40.09,0,76.25-3.7,101.79-9.62c9.38,1.74,19.55,2.7,30.18,2.7c46.85,0,84.83-18.5,84.83-41.33
			C473.53,175.47,464.47,165.36,449.74,157.93z"/>
	</g>
	<polygon class="st2" points="244.07,384.46 247.73,243.07 381.72,309.83 378.07,451.22 	"/>
	<polygon class="st3" points="244.07,384.46 247.73,243.07 110.81,289.42 107.15,430.81 	"/>
	<line class="st4" x1="247.65" y1="243.17" x2="244.78" y2="360.48"/>
	<g>
		<path class="st5" d="M434.04,265.97c-33.23-16.15-100.5-49.86-134.18-66.6l-52.23,43.75c31.19,15.48,98.57,49.27,134.15,66.63"/>
	</g>
	<g>
		<path class="st6" d="M61.15,237.89c33.94-11.09,102.68-34.56,137.1-46.17l49.77,51.44c-31.87,10.73-100.73,34.26-137.07,46.2"/>
	</g>
	<g>
		<g>
			<linearGradient id="SVGID_1_" gradientUnits="userSpaceOnUse" x1="178.2481" y1="335.7128" x2="311.6973" y2="256.1794">
				<stop  offset="0" style="stop-color:#244985"/>
				<stop  offset="0.0433" style="stop-color:#284D8B"/>
				<stop  offset="0.4958" style="stop-color:#4E75C9"/>
				<stop  offset="0.8271" style="stop-color:#658EF0"/>
				<stop  offset="1" style="stop-color:#6E97FF"/>
			</linearGradient>
			<path class="st7" d="M315.8,267.65l-66.34-75.8c-2.33-2.66-6.48-2.66-8.81,0l-66.34,75.8c-3.31,3.78-0.62,9.71,4.4,9.71h33.1
				v90.94c0,13.38,10.84,24.22,24.22,24.22h19.77c13.38,0,24.22-10.84,24.22-24.22v-90.94h31.37
				C316.42,277.36,319.11,271.43,315.8,267.65z"/>
		</g>
	</g>
	<polygon class="st8" points="107.15,430.81 110.81,289.42 244.8,356.18 241.15,497.57 	"/>
	<path class="st9" d="M241.15,497.57l3.66-141.39l136.92-46.35l-3.66,141.39L241.15,497.57z"/>
	<path class="st10" d="M248.36,488.06l0.6-23.21l22.48-7.61l-0.6,23.21L248.36,488.06z"/>
	<g>
		<path class="st11" d="M431.57,361.29c-33.94,11.09-102.68,34.56-137.1,46.17l-49.77-51.44c31.87-10.73,100.73-34.26,137.07-46.2"
			/>
	</g>
	<g>
		<path class="st12" d="M58.68,333.2c33.23,16.15,100.5,49.86,134.18,66.6l52.23-43.75c-31.19-15.48-98.57-49.27-134.15-66.63"/>
	</g>
	<g>
		<g>
			<path class="st13" d="M262.22,293.66h28.53l0,27.88h-28.53V293.66z M288.42,314.89c-0.21-1.27-1.06-2.34-3.57-3.34
				c-0.87-0.4-1.85-0.68-2.14-1.32c-0.11-0.38-0.12-0.59-0.05-0.82c0.18-0.75,1.09-0.98,1.8-0.77c0.46,0.14,0.89,0.49,1.16,1.05
				c1.23-0.79,1.23-0.79,2.09-1.31c-0.32-0.49-0.48-0.7-0.7-0.91c-0.75-0.82-1.75-1.24-3.37-1.2l-0.84,0.1
				c-0.8,0.19-1.57,0.61-2.03,1.17c-1.36,1.5-0.96,4.11,0.68,5.19c1.62,1.18,4,1.45,4.3,2.56c0.29,1.36-1.03,1.79-2.34,1.64
				c-0.96-0.21-1.5-0.68-2.09-1.55l-2.18,1.22c0.25,0.56,0.53,0.8,0.96,1.29c2.07,2.04,7.24,1.94,8.17-1.17
				c0.03-0.1,0.29-0.82,0.09-1.92C288.36,314.81,288.42,314.89,288.42,314.89z M277.74,306.48h-2.67c0,2.25-0.01,4.49-0.01,6.74
				c0,1.43,0.07,2.74-0.16,3.15c-0.39,0.8-1.4,0.7-1.86,0.56c-0.47-0.23-0.71-0.54-0.99-0.99c-0.07-0.12-0.13-0.23-0.15-0.23
				l-2.17,1.31c0.36,0.73,0.89,1.36,1.57,1.76c1.02,0.59,2.38,0.78,3.81,0.47c0.93-0.26,1.73-0.8,2.15-1.64
				c0.61-1.08,0.48-2.4,0.47-3.89c0.01-2.39,0-4.77,0-7.18C277.73,306.54,277.74,306.48,277.74,306.48z"/>
		</g>
	</g>
	<g>
		<g>
			<path class="st14" d="M314.18,223.06H347l-2.98,32.34l-13.46,3.65l-13.38-3.66L314.18,223.06z M340.89,229.68l-20.6,0l0.33,3.93
				l15.82,0l-0.4,4.07h-10.38l0.38,3.86h9.66l-0.57,5.28l-4.55,1.21l-4.62-1.21l-0.29-3.16h-4.08l0.45,5.78l8.54,2.55l8.4-2.29
				L340.89,229.68L340.89,229.68z"/>
		</g>
	</g>
	<g>
		<g>
			<path class="st15" d="M170.27,189.98h32.2l-2.93,31.73l-13.21,3.59l-13.13-3.59L170.27,189.98z M181.05,204.33l-0.36-4l15.42,0
				l0.35-3.86l-20.2,0l1.07,11.78l13.99,0l-0.5,5.04l-4.46,1.18l-4.53-1.19l-0.29-3.1h-4l0.51,6.14l8.31,2.13l8.25-2.12l1.14-12
				L181.05,204.33L181.05,204.33z"/>
		</g>
	</g>
	<g>
		<g>
			<g>
				<defs>
					<rect id="SVGID_2_" x="136.45" y="63.8" width="208.82" height="101.07"/>
				</defs>
				<clipPath id="SVGID_3_">
					<use xlink:href="#SVGID_2_"  style="overflow:visible;"/>
				</clipPath>
				<g class="st16">
					<defs>
						<rect id="SVGID_4_" x="154.45" y="81.07" width="177.32" height="63.06"/>
					</defs>
					<clipPath id="SVGID_5_">
						<use xlink:href="#SVGID_4_"  style="overflow:visible;"/>
					</clipPath>
					<path class="st17" d="M196.43,108.4h-13.62c-0.35,0-0.64,0.28-0.64,0.63v6.59c0,0.35,0.29,0.63,0.64,0.63h5.31v8.19
						c0,0-1.19,0.4-4.49,0.4c-3.89,0-9.33-1.41-9.33-13.24c0-11.83,5.66-13.39,10.98-13.39c4.6,0,6.58,0.8,7.84,1.19
						c0.4,0.12,0.76-0.27,0.76-0.62l1.52-6.37c0-0.16-0.06-0.36-0.24-0.49c-0.51-0.36-3.64-2.09-11.53-2.09
						c-9.09,0-18.42,3.83-18.42,22.24c0,18.41,10.68,21.15,19.68,21.15c7.45,0,11.97-3.15,11.97-3.15c0.19-0.1,0.21-0.36,0.21-0.48
						v-20.56C197.07,108.68,196.78,108.4,196.43,108.4"/>
					<path class="st17" d="M266.63,92.04c0-0.35-0.28-0.63-0.63-0.63h-7.67c-0.35,0-0.64,0.28-0.64,0.63c0,0,0,14.67,0,14.67h-11.95
						V92.04c0-0.35-0.28-0.63-0.63-0.63h-7.67c-0.35,0-0.63,0.28-0.63,0.63v39.72c0,0.35,0.28,0.64,0.63,0.64h7.67
						c0.35,0,0.63-0.29,0.63-0.64v-16.99h11.95c0,0-0.02,16.99-0.02,16.99c0,0.35,0.28,0.64,0.64,0.64H266
						c0.35,0,0.63-0.29,0.63-0.64V92.04z"/>
					<path class="st17" d="M210.91,97.25c0-2.73-2.21-4.94-4.95-4.94c-2.73,0-4.94,2.21-4.94,4.94c0,2.73,2.22,4.95,4.94,4.95
						C208.69,102.19,210.91,99.98,210.91,97.25"/>
					<path class="st17" d="M210.36,123.38v-18.34c0-0.35-0.28-0.63-0.63-0.63h-7.65c-0.35,0-0.66,0.36-0.66,0.71v26.27
						c0,0.77,0.49,1,1.12,1h6.89c0.76,0,0.94-0.37,0.94-1.01V123.38z"/>
					<path class="st17" d="M295.78,104.47h-7.61c-0.35,0-0.63,0.28-0.63,0.64v19.48c0,0-1.93,1.4-4.68,1.4
						c-2.74,0-3.47-1.23-3.47-3.89v-16.99c0-0.35-0.28-0.64-0.63-0.64h-7.72c-0.35,0-0.63,0.28-0.63,0.64v18.27
						c0,7.9,4.45,9.83,10.57,9.83c5.02,0,9.07-2.75,9.07-2.75s0.19,1.45,0.28,1.62c0.09,0.17,0.31,0.34,0.56,0.34l4.91-0.02
						c0.35,0,0.63-0.29,0.63-0.63l0-26.66C296.42,104.76,296.13,104.47,295.78,104.47"/>
					<path class="st17" d="M316.58,103.58c-4.32,0-7.26,1.91-7.26,1.91V92.04c0-0.35-0.28-0.63-0.63-0.63h-7.69
						c-0.35,0-0.63,0.28-0.63,0.63v39.72c0,0.35,0.28,0.64,0.63,0.64h5.34c0.24,0,0.42-0.12,0.56-0.34
						c0.13-0.21,0.32-1.83,0.32-1.83s3.14,2.95,9.1,2.95c6.99,0,11-3.51,11-15.75S320.91,103.58,316.58,103.58 M313.58,125.96
						c-2.64-0.08-4.43-1.27-4.43-1.27v-12.58c0,0,1.77-1.07,3.93-1.26c2.74-0.24,5.38,0.58,5.38,7.05
						C318.46,124.72,317.27,126.07,313.58,125.96"/>
					<path class="st17" d="M232.4,104.41h-5.75c0,0-0.01-7.52-0.01-7.52c0-0.28-0.15-0.43-0.48-0.43h-7.84
						c-0.3,0-0.47,0.13-0.47,0.42v7.77c0,0-3.93,0.94-4.19,1.01c-0.26,0.08-0.46,0.32-0.46,0.61v4.88c0,0.35,0.28,0.63,0.63,0.63
						h4.02v11.75c0,8.73,6.19,9.59,10.36,9.59c1.91,0,4.19-0.61,4.57-0.74c0.23-0.08,0.36-0.32,0.36-0.57l0.01-5.37
						c0-0.35-0.3-0.63-0.64-0.63c-0.34,0-1.19,0.13-2.08,0.13c-2.83,0-3.78-1.3-3.78-2.98c0-1.68,0-11.17,0-11.17h5.75
						c0.35,0,0.64-0.28,0.64-0.63v-6.12C233.04,104.69,232.75,104.41,232.4,104.41"/>
				</g>
			</g>
		</g>
		<g>
			<g>
				<path d="M194.61,149.23h2.42l0.25,2.14h0.11c1.6-1.49,3.85-2.56,5.99-2.56c4.67,0,7.17,3.35,7.17,8.57
					c0,5.7-3.71,9.05-7.88,9.05c-1.6,0-3.64-0.79-5.17-2.18h-0.11l0.14,3.18v5.67h-2.92V149.23z M207.52,157.39
					c0-3.7-1.43-6.19-4.89-6.19c-1.53,0-3.32,0.79-5.1,2.52v8.36c1.64,1.42,3.46,1.97,4.64,1.97
					C205.27,164.06,207.52,161.54,207.52,157.39z"/>
				<path d="M215.57,161.68c0-3.77,3.6-5.6,12.55-6.29c-0.07-2.28-1.25-4.22-4.6-4.22c-2.25,0-4.46,1.04-6.06,2l-1.14-1.94
					c1.75-1.11,4.67-2.42,7.7-2.42c4.74,0,7.03,2.73,7.03,6.91v10.3h-2.39l-0.25-2.28h-0.11c-1.93,1.45-4.39,2.7-6.85,2.7
					C218.21,166.44,215.57,164.68,215.57,161.68z M228.12,161.68v-4.42c-7.42,0.59-9.7,2-9.7,4.22c0,1.9,1.82,2.7,3.82,2.7
					C224.2,164.16,226.16,163.26,228.12,161.68z"/>
				<path d="M236.65,169.11c0-1.35,1-2.7,2.85-3.73v-0.14c-0.93-0.48-1.78-1.35-1.78-2.76c0-1.07,0.75-2.28,2.07-3.15v-0.14
					c-1.18-0.86-2.14-2.35-2.14-4.35c0-3.66,3.14-6.01,6.81-6.01c1,0,1.82,0.14,2.57,0.41h7.17v2.32h-4.49
					c0.78,0.79,1.46,2.04,1.46,3.39c0,3.59-2.96,5.77-6.7,5.77c-0.89,0-1.96-0.21-2.92-0.62c-0.86,0.52-1.36,1.14-1.36,1.94
					c0,1.31,1.32,1.94,3.6,1.94h3.89c4.46,0,6.6,1.11,6.6,3.94c0,3.15-3.74,5.88-9.63,5.88
					C239.57,173.77,236.65,172.08,236.65,169.11z M251.37,168.35c0-1.59-1.32-2.04-3.96-2.04h-3.39c-1,0-1.89-0.07-2.64-0.28
					c-1.64,0.86-2.21,1.83-2.21,2.8c0,1.76,1.96,2.87,5.67,2.87C248.88,171.7,251.37,170.07,251.37,168.35z M248.45,154.83
					c0-2.35-1.78-3.94-3.99-3.94c-2.17,0-3.99,1.59-3.99,3.94c0,2.42,1.82,3.97,3.99,3.97
					C246.67,158.81,248.45,157.25,248.45,154.83z"/>
				<path d="M257.9,157.6c0-5.46,4.21-8.78,8.84-8.78c4.99,0,7.92,3.15,7.92,7.88c0,0.66-0.07,1.28-0.14,1.73h-13.66
					c0.36,3.8,3.14,5.74,6.74,5.74c2.07,0,3.71-0.62,5.28-1.59l1.07,1.87c-1.71,1.11-3.92,2-6.7,2
					C262.03,166.44,257.9,163.2,257.9,157.6z M260.93,156.21h11.05c-0.25-3.46-2.21-5.15-5.17-5.15
					C263.96,151.06,261.46,152.9,260.93,156.21z"/>
				<path d="M279.4,163.82l1.35-1.87c2,1.38,4.32,2.28,7.52,2.28c2.92,0,4.39-1.21,4.39-2.63c0-1.28-0.71-2.18-5.42-3.11
					c-4.49-0.9-6.78-2.38-6.78-4.91c0-2.7,2.46-4.77,7.2-4.77c2.64,0,5.28,1,6.99,2.14l-1.43,1.83c-1.61-1.07-3.6-1.76-5.81-1.76
					c-2.96,0-3.99,1.14-3.99,2.42c0,1.45,1.5,2.07,5.03,2.8c5.78,1.21,7.17,2.63,7.17,5.18c0,2.73-2.75,5.01-7.7,5.01
					C284.53,166.44,281.5,165.23,279.4,163.82z"/>
			</g>
		</g>
	</g>
</g>
</svg>
