<?xml version="1.0" encoding="iso-8859-1"?>
<!-- Generator: Adobe Illustrator 21.0.0, SVG Export Plug-In . SVG Version: 6.00 Build 0)  -->
<svg xmlns="http://www.w3.org/2000/svg" xmlns:xlink="http://www.w3.org/1999/xlink" version="1.1" id="Capa_1" x="0px" y="0px" viewBox="0 0 501.772 501.772" style="enable-background:new 0 0 501.772 501.772;" xml:space="preserve" width="512" height="512">
<g>
	<path style="fill:#525256;" d="M140.57,74.648c-14.586-26.366-40.981-44.082-65.683-44.082c-18.42,0-37.133,9.74-51.34,26.722   c-13.435,16.059-21.14,36.122-21.14,55.042c0,23.311,13.742,45.272,36.76,58.745c1.19,0.697,2.494,1.028,3.782,1.028   c2.551,0,5.037-1.303,6.441-3.646c21.542-35.964,51.995-64.843,88.065-83.518c1.798-0.931,3.144-2.55,3.73-4.487   C141.772,78.513,141.55,76.42,140.57,74.648z"/>
	<g>
		<path style="fill:#454549;" d="M62.742,147.5c-23.018-13.473-36.76-35.434-36.76-58.745c0-16.102,5.597-33.022,15.541-47.607    c-6.47,4.233-12.552,9.657-17.976,16.14c-13.435,16.059-21.14,36.122-21.14,55.042c0,23.311,13.742,45.272,36.76,58.745    c1.19,0.697,2.494,1.028,3.782,1.028c2.551,0,5.037-1.303,6.441-3.646c4.3-7.179,8.961-14.071,13.946-20.661    C63.137,147.701,62.936,147.613,62.742,147.5z"/>
	</g>
	<path style="fill:#525256;" d="M363.609,74.648c14.586-26.366,40.982-44.082,65.683-44.082c18.42,0,37.133,9.74,51.34,26.722   c13.435,16.059,21.14,36.122,21.14,55.042c0,23.311-13.742,45.272-36.76,58.745c-1.19,0.697-2.494,1.028-3.782,1.028   c-2.551,0-5.037-1.303-6.441-3.646c-21.542-35.964-51.995-64.843-88.065-83.518c-1.798-0.931-3.144-2.55-3.73-4.487   C362.407,78.513,362.629,76.42,363.609,74.648z"/>
	<g>
		<path style="fill:#454549;" d="M441.437,147.5c23.018-13.473,36.76-35.434,36.76-58.745c0-16.102-5.597-33.022-15.541-47.607    c6.47,4.233,12.552,9.657,17.976,16.14c13.435,16.059,21.14,36.122,21.14,55.042c0,23.311-13.742,45.272-36.76,58.745    c-1.19,0.697-2.494,1.028-3.782,1.028c-2.551,0-5.037-1.303-6.441-3.646c-4.3-7.179-8.961-14.071-13.946-20.661    C441.043,147.701,441.244,147.613,441.437,147.5z"/>
	</g>
	<path style="fill:#E0E0E0;" d="M437.475,124.753c-32.334-36.776-90.982-80.594-186.878-80.855   c-0.044-0.001-0.088-0.001-0.133-0.001h-0.724c-0.044,0-0.089,0-0.133,0.001C153.712,44.159,95.064,87.977,62.73,124.753   C22.864,170.096,0,230.837,0,291.403c0,55.376,25.767,101.745,74.516,134.096c44.237,29.357,106.401,45.577,175.116,45.707   c0.036,0.001,0.073,0.001,0.109,0.001h0.724c0.037,0,0.073,0,0.109-0.001c68.715-0.13,130.878-16.35,175.116-45.707   c48.749-32.351,74.516-78.72,74.516-134.096C500.205,230.837,477.341,170.096,437.475,124.753z"/>
	<path style="fill:#C4C4C4;" d="M425.689,390.866c-44.237,29.356-106.401,45.577-175.116,45.707   c-0.036,0.001-0.073,0.001-0.109,0.001h-0.724c-0.037,0-0.073,0-0.109-0.001c-68.715-0.13-130.878-16.351-175.116-45.707   C30.511,361.664,5.24,321.036,0.737,272.674C0.257,278.907,0,285.155,0,291.403c0,55.376,25.767,101.745,74.516,134.096   c44.237,29.357,106.401,45.577,175.116,45.707c0.036,0.001,0.073,0.001,0.109,0.001h0.724c0.037,0,0.073,0,0.109-0.001   c68.715-0.13,130.878-16.35,175.116-45.707c48.749-32.351,74.516-78.72,74.516-134.096c0-6.247-0.257-12.495-0.737-18.729   C494.965,321.036,469.694,361.664,425.689,390.866z"/>
	<path style="fill:#525256;" d="M203.188,194.491c-10.011-12.438-25.896-19.572-43.582-19.572c-18.037,0-35.647,6.24-49.587,17.57   c-16.036,13.034-26.679,32.305-30.778,55.729c-3.855,22.026,0.407,42.363,11.691,55.794c9.102,10.834,21.859,16.56,36.893,16.56   c16.521,0,35.6-8.479,52.346-23.265c16.755-14.792,28.662-33.774,32.666-52.078C217.136,225.58,213.709,207.562,203.188,194.491z"/>
	<path style="fill:#2B2B2D;" d="M340.009,348.613c-1.546-3.844-5.915-5.705-9.757-4.158c-40.08,16.128-64.699-8.849-70.662-15.954   v-11.438c0-4.143-3.358-7.5-7.5-7.5s-7.5,3.357-7.5,7.5v11.435c-5.993,7.138-30.605,32.076-70.663,15.956   c-3.842-1.547-8.212,0.315-9.757,4.158c-1.546,3.843,0.315,8.211,4.158,9.758c11.482,4.621,21.957,6.408,31.299,6.408   c14.648,0,26.505-4.399,35.048-9.166c7.618-4.252,13.456-9.236,17.415-13.191c3.958,3.954,9.797,8.939,17.415,13.191   c8.544,4.767,20.398,9.166,35.048,9.166c9.341,0,19.818-1.788,31.299-6.408C339.694,356.823,341.556,352.455,340.009,348.613z"/>
	<path style="fill:#525256;" d="M252.09,268.243c-14.255,0-40.789,0-40.789,20.673c0,7.747,6.347,15.601,19.975,24.717   c8.635,5.775,17.144,9.982,17.502,10.158c1.044,0.515,2.178,0.772,3.313,0.772s2.269-0.257,3.313-0.772   c0.358-0.176,8.867-4.383,17.502-10.159c13.627-9.115,19.974-16.969,19.974-24.716C292.878,268.243,266.345,268.243,252.09,268.243   z"/>
	<path style="fill:#454549;" d="M289.142,277.708c-21.063,18.44-53.041,18.44-74.104,0c-2.327,2.817-3.737,6.463-3.737,11.208   c0,7.747,6.347,15.601,19.975,24.717c8.635,5.775,17.144,9.982,17.502,10.158c1.044,0.515,2.178,0.772,3.313,0.772   s2.269-0.257,3.313-0.772c0.358-0.176,8.867-4.383,17.502-10.159c13.627-9.115,19.974-16.969,19.974-24.716   C292.878,284.171,291.469,280.525,289.142,277.708z"/>
	<path style="fill:#525256;" d="M420.24,248.218c-4.099-23.424-14.742-42.694-30.778-55.729c-13.94-11.33-31.55-17.57-49.586-17.57   c-17.686,0-33.571,7.134-43.583,19.572c-10.521,13.07-13.947,31.089-9.649,50.737c4.004,18.304,15.91,37.286,32.666,52.078   c16.746,14.785,35.826,23.265,52.347,23.265c15.033,0,27.791-5.725,36.893-16.559C419.833,290.581,424.094,270.245,420.24,248.218z   "/>
	<path style="fill:#454549;" d="M180.172,262.245c-16.747,14.785-35.826,23.265-52.346,23.265c-15.034,0-27.791-5.726-36.893-16.56   c-5.365-6.385-9.121-14.343-11.194-23.289c-0.169,0.851-0.347,1.695-0.497,2.557c-3.855,22.026,0.407,42.363,11.691,55.794   c9.102,10.834,21.859,16.56,36.893,16.56c16.521,0,35.6-8.479,52.346-23.265c16.755-14.792,28.662-33.774,32.666-52.078   c2.586-11.822,2.355-23.044-0.514-32.963C207.897,229.914,196.289,248.017,180.172,262.245z"/>
	<path style="fill:#454549;" d="M419.742,245.66c-2.073,8.947-5.829,16.905-11.194,23.291   c-9.102,10.833-21.859,16.559-36.893,16.559c-16.52,0-35.6-8.479-52.347-23.265c-16.116-14.228-27.725-32.331-32.151-49.98   c-2.87,9.919-3.1,21.141-0.514,32.963c4.004,18.304,15.91,37.286,32.666,52.078c16.746,14.785,35.826,23.265,52.347,23.265   c15.033,0,27.791-5.725,36.893-16.559c11.285-13.432,15.546-33.768,11.692-55.795C420.089,247.356,419.911,246.511,419.742,245.66z   "/>
	<g>
		<path style="fill:#2B2B2D;" d="M153.805,220.468c-10.23,0-18.553,8.323-18.553,18.554c0,10.23,8.323,18.553,18.553,18.553    c10.23,0,18.553-8.322,18.553-18.553C172.358,228.791,164.036,220.468,153.805,220.468z"/>
		<path style="fill:#2B2B2D;" d="M345.676,220.468c-10.23,0-18.553,8.323-18.553,18.554c0,10.23,8.323,18.553,18.553,18.553    c10.23,0,18.553-8.322,18.553-18.553C364.229,228.791,355.906,220.468,345.676,220.468z"/>
	</g>
</g>















</svg>
